<svg width="180" height="52" viewBox="0 0 180 52" fill="none" xmlns="http://www.w3.org/2000/svg">
<g clip-path="url(#clip0_4833_333)">
<path d="M70.7933 10.4786V18.665H50.0248V10.4786H70.7933ZM54.0472 2.94711H65.3754V31.8042C65.3754 32.2408 65.4507 32.6092 65.6012 32.9093C65.7517 33.1959 65.9843 33.4142 66.2989 33.5642C66.6136 33.7007 67.0172 33.7689 67.5097 33.7689C67.8518 33.7689 68.2485 33.728 68.7 33.6461C69.1652 33.5642 69.5072 33.496 69.7261 33.4415L71.3679 41.3823C70.8617 41.5323 70.1366 41.7165 69.1926 41.9348C68.2622 42.1531 67.154 42.2964 65.868 42.3646C63.2685 42.5011 61.0863 42.235 59.3214 41.5664C57.5565 40.8842 56.2294 39.8132 55.3401 38.3533C54.4508 36.8934 54.0198 35.0651 54.0472 32.8684V2.94711Z" fill="#4EA8DE"/>
<path d="M90.2637 42.4874C86.8433 42.4874 83.9155 41.812 81.4802 40.4613C79.0449 39.0969 77.1774 37.2004 75.8777 34.7717C74.5779 32.3295 73.928 29.4983 73.928 26.2784C73.928 23.0584 74.5779 20.2341 75.8777 17.8054C77.1774 15.3631 79.0449 13.4666 81.4802 12.1159C83.9155 10.7515 86.8433 10.0693 90.2637 10.0693C93.6841 10.0693 96.6119 10.7515 99.0472 12.1159C101.482 13.4666 103.35 15.3631 104.65 17.8054C105.949 20.2341 106.599 23.0584 106.599 26.2784C106.599 29.4983 105.949 32.3295 104.65 34.7717C103.35 37.2004 101.482 39.0969 99.0472 40.4613C96.6119 41.812 93.6841 42.4874 90.2637 42.4874ZM90.3458 34.1373C91.3035 34.1373 92.1312 33.8167 92.829 33.1754C93.5267 32.5341 94.0671 31.62 94.4502 30.4329C94.8333 29.2459 95.0248 27.8338 95.0248 26.1965C95.0248 24.5456 94.8333 23.1334 94.4502 21.96C94.0671 20.773 93.5267 19.8588 92.829 19.2176C92.1312 18.5763 91.3035 18.2557 90.3458 18.2557C89.3334 18.2557 88.4646 18.5763 87.7395 19.2176C87.0144 19.8588 86.4603 20.773 86.0772 21.96C85.6941 23.1334 85.5025 24.5456 85.5025 26.1965C85.5025 27.8338 85.6941 29.2459 86.0772 30.4329C86.4603 31.62 87.0144 32.5341 87.7395 33.1754C88.4646 33.8167 89.3334 34.1373 90.3458 34.1373Z" fill="#4EA8DE"/>
<path d="M122.641 42.3237C120.397 42.3237 118.331 41.737 116.443 40.5636C114.568 39.3902 113.063 37.6097 111.928 35.222C110.806 32.8343 110.245 29.8258 110.245 26.1965C110.245 22.4034 110.833 19.3199 112.01 16.9458C113.2 14.5718 114.733 12.8322 116.607 11.727C118.495 10.6219 120.479 10.0693 122.558 10.0693C124.118 10.0693 125.486 10.3421 126.663 10.8879C127.839 11.42 128.825 12.1363 129.618 13.0368C130.412 13.9237 131.014 14.8992 131.424 15.9635H131.588V0H142.916V41.9144H131.67V36.7569H131.424C130.986 37.8212 130.357 38.7762 129.536 39.6222C128.729 40.4544 127.744 41.1162 126.581 41.6074C125.432 42.0849 124.118 42.3237 122.641 42.3237ZM126.827 33.6461C127.867 33.6461 128.756 33.3459 129.495 32.7456C130.247 32.1316 130.822 31.272 131.219 30.1669C131.629 29.0481 131.834 27.7246 131.834 26.1965C131.834 24.6411 131.629 23.3108 131.219 22.2056C130.822 21.0868 130.247 20.234 129.495 19.6474C128.756 19.047 127.867 18.7469 126.827 18.7469C125.787 18.7469 124.898 19.047 124.159 19.6474C123.434 20.234 122.873 21.0868 122.476 22.2056C122.093 23.3108 121.902 24.6411 121.902 26.1965C121.902 27.7519 122.093 29.089 122.476 30.2078C122.873 31.313 123.434 32.1657 124.159 32.7661C124.898 33.3527 125.787 33.6461 126.827 33.6461Z" fill="#5E60CE"/>
<path d="M163.664 42.4874C160.244 42.4874 157.316 41.812 154.881 40.4613C152.446 39.0969 150.578 37.2004 149.278 34.7717C147.979 32.3294 147.329 29.4983 147.329 26.2783C147.329 23.0584 147.979 20.234 149.278 17.8054C150.578 15.3631 152.446 13.4666 154.881 12.1159C157.316 10.7515 160.244 10.0693 163.664 10.0693C167.085 10.0693 170.013 10.7515 172.448 12.1159C174.883 13.4666 176.751 15.3631 178.05 17.8054C179.35 20.234 180 23.0584 180 26.2783C180 29.4983 179.35 32.3294 178.05 34.7717C176.751 37.2004 174.883 39.0969 172.448 40.4613C170.013 41.812 167.085 42.4874 163.664 42.4874ZM163.746 34.1373C164.704 34.1373 165.532 33.8166 166.23 33.1754C166.927 32.5341 167.468 31.62 167.851 30.4329C168.234 29.2459 168.425 27.8337 168.425 26.1965C168.425 24.5455 168.234 23.1334 167.851 21.96C167.468 20.773 166.927 19.8588 166.23 19.2176C165.532 18.5763 164.704 18.2557 163.746 18.2557C162.734 18.2557 161.865 18.5763 161.14 19.2176C160.415 19.8588 159.861 20.773 159.478 21.96C159.095 23.1334 158.903 24.5455 158.903 26.1965C158.903 27.8337 159.095 29.2459 159.478 30.4329C159.861 31.62 160.415 32.5341 161.14 33.1754C161.865 33.8166 162.734 34.1373 163.746 34.1373Z" fill="#5E60CE"/>
<g clip-path="url(#clip1_4833_333)">
<path d="M15.9236 4.35689C20.4395 10.0741 22.8501 17.1244 22.7627 24.3589V26.0858L24.2526 26.9899C26.1777 28.1521 27.6134 29.9546 28.2981 32.0691C27.6969 31.6277 27.068 31.224 26.4151 30.8603L22.442 28.6356L21.728 33.1256C21.6662 33.5224 21.5833 33.9157 21.4797 34.304H10.3468C10.1812 33.7961 10.0467 33.2881 9.92258 32.7599L9.02242 28.6965L5.35973 30.7282C4.74782 31.0695 4.15703 31.446 3.59046 31.8558C4.28852 29.7658 5.69426 27.9733 7.5739 26.7766L8.99138 25.8725V24.2674C9.01696 17.0623 11.4566 10.0657 15.934 4.35689H15.9236ZM15.934 0.130981C15.7017 0.131544 15.4776 0.214527 15.3028 0.364626L15.2097 0.445893C9.24339 6.99734 5.93038 15.469 5.89775 24.2573C3.36594 25.87 1.49185 28.305 0.602968 31.1367C-0.28591 33.9684 -0.133044 37.0167 1.03485 39.7489C2.26517 37.0811 4.32185 34.8628 6.91172 33.41C7.17146 34.5147 7.51736 35.5981 7.94638 36.6506C8.00079 36.8529 8.12139 37.0321 8.28963 37.1606C8.45787 37.2891 8.66444 37.3597 8.87757 37.3617H23.2386C23.5284 37.3617 23.8181 37.0874 23.9629 36.6607C24.3816 35.6601 24.6735 34.6127 24.832 33.5421C27.4269 34.9888 29.4852 37.2089 30.7089 39.881C31.9473 37.1622 32.139 34.0946 31.2485 31.2476C30.358 28.4005 28.4458 25.9673 25.8667 24.3995C25.969 15.5594 22.6735 7.00621 16.6375 0.445893C16.5476 0.347224 16.4376 0.268203 16.3146 0.213953C16.1917 0.159703 16.0584 0.131435 15.9236 0.130981L15.934 0.130981Z" fill="#4EA8DE"/>
<path d="M15.9235 23.4141C15.1287 23.4141 14.3518 23.1831 13.6906 22.7502C13.0294 22.3173 12.5136 21.702 12.2081 20.9817C11.9025 20.2614 11.821 19.4684 11.9738 18.7027C12.1266 17.937 12.5069 17.2329 13.0667 16.679C13.6265 16.1252 14.3407 15.7464 15.1194 15.5905C15.8981 15.4346 16.7063 15.5086 17.4423 15.803C18.1783 16.0974 18.809 16.5992 19.2549 17.245C19.7009 17.8908 19.9422 18.6518 19.9483 19.432C19.9607 19.9377 19.8714 20.4407 19.6857 20.9125C19.5 21.3843 19.2214 21.8155 18.8659 22.1815C18.5104 22.5475 18.0849 22.8412 17.6138 23.0457C17.1426 23.2503 16.635 23.3616 16.12 23.3735C16.0549 23.3838 15.9886 23.3838 15.9235 23.3735V23.4141Z" fill="#4EA8DE"/>
<path d="M21.5209 39.8911C21.262 39.883 21.0041 39.9257 20.7622 40.0168C20.5204 40.1078 20.2995 40.2454 20.1126 40.4214C19.9256 40.5974 19.7763 40.8083 19.6735 41.0417C19.5706 41.2751 19.5163 41.5263 19.5137 41.7806V47.7741C19.5137 48.2967 19.7251 48.798 20.1016 49.1676C20.478 49.5372 20.9886 49.7448 21.5209 49.7448C22.0533 49.7448 22.5638 49.5372 22.9402 49.1676C23.3167 48.798 23.5282 48.2967 23.5282 47.7741V41.8619C23.5364 41.6085 23.4932 41.3561 23.4011 41.1193C23.309 40.8825 23.1699 40.6661 22.9917 40.4827C22.8135 40.2993 22.6 40.1525 22.3634 40.0509C22.1269 39.9493 21.8722 39.895 21.614 39.8911H21.5209Z" fill="#5E60CE"/>
<path d="M10.3466 39.8911C10.0833 39.8774 9.81993 39.9159 9.57209 40.0042C9.32426 40.0925 9.09705 40.2289 8.90399 40.4052C8.71092 40.5815 8.55595 40.7941 8.44828 41.0304C8.34062 41.2666 8.28247 41.5218 8.27728 41.7806V47.7741C8.27728 48.2968 8.48876 48.798 8.86519 49.1676C9.24162 49.5372 9.75217 49.7448 10.2845 49.7448C10.8169 49.7448 11.3274 49.5372 11.7039 49.1676C12.0803 48.798 12.2918 48.2968 12.2918 47.7741V41.8619C12.3 41.6085 12.2569 41.3561 12.1648 41.1193C12.0727 40.8825 11.9335 40.6661 11.7553 40.4827C11.5771 40.2993 11.3636 40.1525 11.127 40.0509C10.8905 39.9494 10.6358 39.895 10.3776 39.8911H10.3466Z" fill="#5E60CE"/>
<path d="M15.7786 39.8911C15.5204 39.8857 15.2637 39.9303 15.0231 40.0224C14.7825 40.1144 14.5627 40.2521 14.3763 40.4276C14.1899 40.603 14.0405 40.8128 13.9367 41.045C13.8329 41.2772 13.7767 41.5271 13.7714 41.7806V50.0394C13.7714 50.5621 13.9828 51.0633 14.3593 51.4329C14.7357 51.8025 15.2462 52.0101 15.7786 52.0101C16.311 52.0101 16.8215 51.8025 17.1979 51.4329C17.5744 51.0633 17.7858 50.5621 17.7858 50.0394V41.9127C17.7941 41.6593 17.7509 41.4069 17.6588 41.1701C17.5667 40.9333 17.4275 40.7169 17.2494 40.5335C17.0712 40.3501 16.8577 40.2033 16.6211 40.1017C16.3846 40.0002 16.1298 39.9458 15.8717 39.9419L15.7786 39.8911Z" fill="#5E60CE"/>
</g>
</g>
<defs>
<clipPath id="clip0_4833_333">
<rect width="180" height="52" fill="white"/>
</clipPath>
<clipPath id="clip1_4833_333">
<rect width="31.7847" height="51.869" fill="white" transform="translate(0 0.130981)"/>
</clipPath>
</defs>
</svg>
